<?xml version="1.0" encoding="iso-8859-1"?>
<!-- Generator: Adobe Illustrator 19.0.0, SVG Export Plug-In . SVG Version: 6.00 Build 0)  -->
<svg version="1.1" id="Capa_1" xmlns="http://www.w3.org/2000/svg" xmlns:xlink="http://www.w3.org/1999/xlink" x="0px" y="0px"
	 viewBox="0 0 512 512" style="enable-background:new 0 0 512 512;" xml:space="preserve">
<path style="fill:#878586;" d="M271.383,309.23l-43.705,88.402h47.502c15.125,0,28.651-9.417,33.901-23.602l18.837-50.895
	L271.383,309.23z"/>
<rect x="258.438" y="189.211" transform="matrix(-0.8036 0.5952 -0.5952 -0.8036 637.108 277.7163)" style="fill:#323E40;" width="28.584" height="109.542"/>
<path style="fill:#50C4DF;" d="M146.856,74.036l-52.047,58.007l60.313,81.428c25.098,33.884,72.911,41.007,106.795,15.909l0,0
	c33.884-25.097,41.007-72.911,15.909-106.795l-60.313-81.428L146.856,74.036z"/>
<path style="fill:#323E40;" d="M7.501,451.269V421.47c49.588,0,60.78-25.805,74.952-58.477
	c13.269-30.591,29.784-68.664,86.065-68.664v29.799c-35.02,0-44.676,18.328-58.727,50.723
	C95.023,408.899,76.644,451.269,7.501,451.269z"/>
<path style="fill:#878586;" d="M207.151,436.37l-45.711,25.825l-5.632,15.694c-5.036,10.34,2.493,22.379,13.995,22.379h35.818
	c5.95,0,11.383-3.397,13.985-8.741l10.857-29.332L207.151,436.37z"/>
<path style="fill:#6B6A6A;" d="M185.808,477.889l5.632-15.694l25.843-14.601l-10.132-11.225l-45.711,25.825l-5.632,15.694
	c-5.036,10.34,2.493,22.379,13.995,22.379h30C188.301,500.268,180.772,488.229,185.808,477.889z"/>
<polygon style="fill:#323E40;" points="278.25,333.068 230.463,462.195 161.44,462.195 207.816,333.068 "/>
<g>
	<polygon style="fill:#283133;" points="207.816,333.068 161.44,462.195 191.44,462.195 237.816,333.068 	"/>
	<path style="fill:#283133;" d="M168.517,324.129v-29.798c-18.671,0-32.963,4.193-44.214,10.91l-3.778,6.763
		c-7.121,12.743-7.138,27.797-0.145,40.526C130.576,334.178,142.599,324.129,168.517,324.129z"/>
</g>
<path style="fill:#50C4DF;" d="M388.753,239.014h-68.209c-8.552,0-16.767,3.367-22.855,9.367l-20.72,20.422
	c-6.089,6.009-14.303,9.377-22.846,9.377h-76.165c-6.109,0-11.741,3.298-14.72,8.632l-20.889,37.387
	c-6.278,11.234,1.847,25.09,14.73,25.09h231.674l20.933-55.14L388.753,239.014z"/>
<path style="fill:#1AA5C4;" d="M388.753,329.289H157.079c-5.831,0-10.68-2.843-13.668-6.992l-1.063,1.902
	c-6.278,11.234,1.848,25.09,14.73,25.09h231.674l20.933-55.14l-3.797-10L388.753,329.289z"/>
<path style="fill:#878586;" d="M430.298,239.012c0,0,39.162,37.101,74.203,37.101v36.071c-35.04,0-74.203,37.101-74.203,37.101
	l-20.612-55.137L430.298,239.012z"/>
<path style="fill:#6B6A6A;" d="M413.424,284.149l-3.738,10l20.612,55.137c0,0,39.162-37.101,74.203-37.101v-20
	c-35.04,0-74.203,37.101-74.203,37.101L413.424,284.149z"/>
<g>
	<path style="fill:#1AA5C4;" d="M229.515,99.081l28.356,38.284c16.908,22.827,12.092,55.153-10.735,72.061
		s-55.153,12.092-72.061-10.735c0,0-39.593-53.455-39.62-53.491c-0.988-1.334,11.876-11.984,12.861-12.724
		c7.415-5.573,16.322-9.022,25.551-9.932c9.53-0.94,19.091,0.026,28.193-3.615c10.394-4.158,20.072-11.324,27.405-19.788
		C229.483,99.12,229.499,99.1,229.515,99.081z"/>
	<rect x="388.75" y="239.012" style="fill:#1AA5C4;" width="41.549" height="110.27"/>
</g>
<rect x="388.75" y="329.292" style="fill:#008CA8;" width="41.549" height="20"/>
<path style="fill:#878586;" d="M200.038,15.188L75.062,107.757c-7.797,5.775-9.437,16.778-3.661,24.576l8.154,11.009L232.768,29.858
	l-8.154-11.009C218.839,11.052,207.836,9.413,200.038,15.188z"/>
<path d="M251.6,215.447c12.65-9.37,20.897-23.125,23.222-38.732s-1.555-31.169-10.924-43.819c0,0-28.297-38.203-28.356-38.284
	c-2.84-3.835-8.656-4.039-11.744-0.39c-6.778,7.823-15.487,14.122-24.523,17.736c-8.229,3.292-17.492,2.261-26.143,3.114
	c-10.657,1.051-20.796,4.994-29.322,11.401c-4.393,3.302-8.774,7.161-12.464,11.244c-4.888,5.408-3.74,9.478-1.939,11.91
	c0.015,0.021,0.038,0.052,39.643,53.521c11.071,14.947,28.825,23.871,47.49,23.871C229.254,227.02,241.378,223.018,251.6,215.447z
	 M181.102,194.221c0,0-26.585-35.893-36.202-48.876c2.758-2.581,6.557-5.823,7.922-6.88c6.328-4.756,13.859-7.683,21.781-8.464
	c10.206-1.007,20.512-0.223,30.243-4.115c8.522-3.409,16.779-8.706,23.894-15.255l23.104,31.193
	c6.985,9.43,9.876,21.037,8.142,32.681c-1.734,11.645-7.883,21.904-17.313,28.889c-7.62,5.644-16.657,8.627-26.134,8.627
	C202.604,212.02,189.357,205.366,181.102,194.221z"/>
<path d="M116.67,377.832c6.48-14.94,11.806-26.358,18.865-34.048c0.171,0.322,0.338,0.645,0.523,0.961
	c4.422,7.538,12.28,12.038,21.02,12.038h34.249l-42.455,118.22c-3.295,7.102-2.792,15.264,1.371,21.923
	c4.243,6.785,11.555,10.836,19.56,10.836c0,0,35.809,0,35.818,0c8.494,0,17.96-5.399,21.019-13.638l32.938-88.999h15.602
	c18.176,0,34.626-11.452,40.936-28.498l7.345-19.845c0,0,106.838,0,106.841,0c1.99,0,3.844-0.847,5.303-2.197
	c2.622-2.424,38.369-34.907,68.895-34.907c4.142,0,7.5-3.358,7.5-7.5v-36.071c0-4.142-3.358-7.5-7.5-7.5
	c-31.552,0-68.678-34.699-69.049-35.05c-1.38-1.294-3.257-2.05-5.149-2.05H320.543c-8.766,0-17.113,2.811-24.008,7.992
	l-14.35-19.374c9.055-11.382,15.022-24.979,17.222-39.75c3.3-22.153-2.224-44.264-15.555-62.262l-55.849-75.401
	c0,0,9.222-6.831,9.228-6.835c3.282-2.431,3.994-7.209,1.563-10.491l-8.154-11.009c-8.228-11.107-23.958-13.452-35.066-5.224
	L176.015,23.64c-3.329,2.465-4.028,7.163-1.563,10.491c2.466,3.329,7.163,4.028,10.491,1.563l19.559-14.487
	c4.462-3.305,10.781-2.363,14.085,2.098l3.69,4.982L81.117,132.845c0,0-3.685-4.976-3.69-4.982
	c-3.269-4.414-2.303-10.824,2.098-14.084l81.69-60.507c3.329-2.465,4.028-7.162,1.563-10.491c-2.465-3.329-7.163-4.028-10.491-1.563
	c0,0-81.638,60.469-81.69,60.507c-10.975,8.129-13.354,24.09-5.224,35.066c0,0,8.145,10.997,8.154,11.009
	c2.425,3.275,7.22,3.986,10.491,1.563l9.228-6.835l55.849,75.401c15.744,21.256,40.955,33.946,67.441,33.947
	c10.622,0,20.955-1.986,30.63-5.804l16.749,22.613c-3.058,1.301-6.373,1.989-9.792,1.989h-76.165c-8.82,0-16.97,4.779-21.268,12.473
	l-2.539,4.544c-49.852,6.132-66.413,44.264-78.58,72.314c-14.094,32.494-23.406,53.96-68.071,53.96c-4.142,0-7.5,3.358-7.5,7.5
	v29.798c0,4.142,3.358,7.5,7.5,7.5C81.565,458.764,101.855,411.987,116.67,377.832z M207.266,356.783h54.208l-36.233,97.907h-53.139
	L207.266,356.783z M212.722,488.513c-1.39,2.591-4.144,4.25-7.102,4.25c0,0-35.718,0-35.818,0c-5.88,0-9.826-6.31-7.253-11.595
	c0.119-0.244,4.166-11.477,4.166-11.477h52.973L212.722,488.513z M302.048,371.422c-4.141,11.188-14.938,18.705-26.868,18.705
	h-10.051l12.34-33.343h29.998L302.048,371.422z M497,305.156c-22.781,2.828-45.564,17.622-59.199,28.079v-78.182
	c13.634,10.457,36.418,25.251,59.199,28.078V305.156z M216.534,236.876c-21.753,0-42.458-10.421-55.386-27.875L105.299,133.6
	L215.95,51.642l55.849,75.401c10.946,14.778,15.482,32.934,12.772,51.124c-3.307,22.195-17.663,41.462-37.591,51.571
	C237.603,234.494,227.033,236.876,216.534,236.876z M266.196,235.565c2.768-2.102,5.543-4.341,5.476-4.432
	c0.003,0.004,13.852,18.702,13.852,18.702l-9.771,9.631l-14.99-20.238C260.927,239.447,263.559,237.568,266.196,235.565z
	 M177.958,285.675h76.165c9.991,0,19.441-3.651,26.807-10.309c0.453-0.406,22.023-21.647,22.023-21.647
	c4.718-4.649,10.965-7.209,17.591-7.209h60.709v20.092c0,4.142,3.358,7.5,7.5,7.5s7.5-3.358,7.5-7.5v-20.093h26.549v95.274h-26.549
	v-45.181c0-4.142-3.358-7.5-7.5-7.5s-7.5,3.358-7.5,7.5v45.181c0,0-224.106,0-224.174,0c-6.929,0-11.635-7.757-8.183-13.932
	l20.889-37.388C171.435,287.509,174.566,285.675,177.958,285.675z M15,443.582v-14.821c48.273-2.709,60.949-31.933,74.332-62.788
	c10.712-24.694,22.679-52.281,55.271-61.194c0,0-8.833,15.816-8.85,15.846c-0.886,1.59-1.603,3.316-2.111,5.064
	c-13.95,9.342-21.635,25.196-30.733,46.173C88.876,404.214,73.048,440.708,15,443.582z"/>
<g>
</g>
<g>
</g>
<g>
</g>
<g>
</g>
<g>
</g>
<g>
</g>
<g>
</g>
<g>
</g>
<g>
</g>
<g>
</g>
<g>
</g>
<g>
</g>
<g>
</g>
<g>
</g>
<g>
</g>
</svg>
